<svg width="62" height="54" viewBox="0 0 62 54" fill="none" xmlns="http://www.w3.org/2000/svg">
<g clip-path="url(#clip0_3_24)">
<path d="M61.7756 27.7334C61.7756 33.5991 59.8298 38.874 55.9381 43.5582C52.0495 48.2423 47.0228 51.4823 40.861 53.2809C40.1451 53.3991 39.6189 53.3177 39.2884 53.0367C39.1254 52.9006 38.997 52.7371 38.9112 52.5563C38.8253 52.3756 38.784 52.1816 38.7898 51.9865V44.59C38.7898 42.3241 38.0983 40.6647 36.7185 39.6144C38.097 39.4957 39.4626 39.285 40.8029 38.9843C42.0083 38.7033 43.2566 38.2491 44.5446 37.619C45.783 37.0243 46.8783 36.2331 47.7724 35.2874C48.6351 34.3632 49.3388 33.137 49.8834 31.6062C50.428 30.0755 50.7003 28.3189 50.7003 26.334C50.7003 23.5061 49.6509 21.0984 47.5552 19.1134C48.5342 16.9867 48.4302 14.6052 47.2339 11.9638C46.4905 11.7538 45.4166 11.885 44.0092 12.3498C42.7326 12.7613 41.5052 13.2775 40.344 13.891L38.8295 14.7312C36.3421 14.1226 33.7674 13.8168 31.1808 13.8228C28.5941 13.8177 26.0194 14.1244 23.5321 14.7339C22.9788 14.405 22.4146 14.0898 21.8402 13.7886C21.1366 13.4132 20.026 12.9642 18.5115 12.4391C17.0002 11.9139 15.8559 11.7564 15.0849 11.9664C13.9193 14.6052 13.8244 16.9867 14.8096 19.1134C12.7108 21.0984 11.6583 23.5061 11.6583 26.334C11.6583 28.3189 11.9337 30.0702 12.4782 31.5905C13.0228 33.1081 13.7204 34.3343 14.5679 35.269C15.4467 36.2246 16.5362 37.0222 17.7742 37.6163C19.0622 38.2465 20.3136 38.7033 21.519 38.9817C22.7275 39.2652 24.089 39.4753 25.6034 39.6144C24.5418 40.4546 23.8901 41.6598 23.6515 43.2247C23.081 43.4619 22.4789 43.6382 21.8586 43.7498C21.111 43.8757 20.3502 43.9347 19.5885 43.9257C18.7104 43.9257 17.8446 43.6737 16.9787 43.1722C16.116 42.6681 15.3786 41.9381 14.7667 40.9824C14.2887 40.2596 13.6293 39.6371 12.8362 39.1602C12.053 38.6928 11.3952 38.4119 10.8628 38.32L10.0674 38.215C9.51055 38.215 9.12506 38.2675 8.9109 38.3725C8.69673 38.4775 8.63554 38.6088 8.71203 38.7742C8.80201 38.9524 8.92268 39.1179 9.06999 39.2652C9.22282 39.4229 9.39748 39.564 9.5901 39.6853L9.86545 39.8586C10.4529 40.0949 11.0281 40.5387 11.6002 41.1925C12.1723 41.8462 12.5914 42.4423 12.8546 42.9779L13.2523 43.784C13.598 44.6714 14.1824 45.3909 15.0084 45.9396C15.8314 46.491 16.7217 46.8402 17.6763 46.9899C18.6309 47.1422 19.5548 47.2262 20.4451 47.2367C21.3324 47.2472 22.0728 47.2078 22.6571 47.1133L23.5719 46.9741C23.5719 47.8616 23.578 48.9013 23.5933 50.0934L23.6117 51.9838C23.6117 52.4039 23.4404 52.7558 23.0916 53.0341C22.7489 53.3177 22.2166 53.3991 21.5006 53.2809C15.3389 51.4823 10.3121 48.2397 6.42354 43.5582C2.53189 38.874 0.58606 33.5991 0.58606 27.7334C0.58606 22.8497 1.95365 18.3494 4.68882 14.2245C7.33674 10.1788 11.1772 6.80142 15.8253 4.43085C20.4589 2.03709 25.7726 0.787764 31.1808 0.820596C36.5901 0.78728 41.905 2.03662 46.5394 4.43085C51.1864 6.80178 55.0258 10.1791 57.6728 14.2245C60.408 18.3468 61.7756 22.8524 61.7756 27.7334Z" fill="white"/>
</g>
<defs>
<clipPath id="clip0_3_24">
<rect width="61.1895" height="52.5128" fill="white" transform="translate(0.58606 0.820557)"/>
</clipPath>
</defs>
</svg>
