<svg width="46" height="40" viewBox="0 0 46 40" fill="none" xmlns="http://www.w3.org/2000/svg">
<g clip-path="url(#clip0_14_32)">
<path d="M38.7352 34.0824H31.9992V24.8007C31.9992 22.5874 31.9542 19.7382 28.4958 19.7382C24.9874 19.7382 24.4505 22.1498 24.4505 24.6396V34.0818H17.7147V14.9949H24.1811V17.6034H24.2717C24.9188 16.6298 25.854 15.8289 26.9776 15.2859C28.1011 14.7429 29.371 14.4783 30.652 14.5201C37.4793 14.5201 38.738 18.4713 38.738 23.6117L38.7352 34.0824ZM10.1141 12.386C7.95516 12.3863 6.2047 10.8467 6.20435 8.94713C6.20399 7.0476 7.95374 5.50744 10.1126 5.50713C12.2716 5.50666 14.022 7.04635 14.0224 8.94588C14.0226 9.85807 13.6109 10.733 12.878 11.3781C12.145 12.0233 11.1508 12.3858 10.1141 12.386ZM13.4822 34.0826H6.73906V14.9949H13.482V34.0824L13.4822 34.0826ZM42.0933 0.00291123H3.35428C1.52337 -0.0152138 0.0218875 1.27525 -0.000488281 2.88619V37.1132C0.0211771 38.7249 1.52248 40.0167 3.3541 39.9998H42.0933C43.9288 40.0198 45.436 38.7281 45.4614 37.1132V2.88354C45.4353 1.26947 43.9279 -0.0208388 42.0933 0.000254983" fill="#F9F9F9"/>
</g>
<defs>
<clipPath id="clip0_14_32">
<rect width="45.4619" height="40" fill="white"/>
</clipPath>
</defs>
</svg>
