<svg width="64" height="60" viewBox="0 0 64 60" fill="none" xmlns="http://www.w3.org/2000/svg">
<rect width="64" height="60" fill="#010101"/>
<path d="M40.5334 58H57.6C58.7316 58 59.8169 57.5786 60.617 56.8284C61.4172 56.0783 61.8667 55.0609 61.8667 54V6C61.8667 4.93913 61.4172 3.92172 60.617 3.17157C59.8169 2.42143 58.7316 2 57.6 2H40.5334C39.4018 2 38.3165 2.42143 37.5164 3.17157C36.7162 3.92172 36.2667 4.93913 36.2667 6V54C36.2667 55.0609 36.7162 56.0783 37.5164 56.8284C38.3165 57.5786 39.4018 58 40.5334 58ZM40.5334 58H17.0667M27.7334 46V58M36.2667 22H61.8667M42.6667 46H55.4667M6.40003 14H36.2667V46H6.40003C5.26844 46 4.18319 45.5786 3.38304 44.8284C2.58288 44.0783 2.13336 43.0609 2.13336 42V18C2.13336 16.9391 2.58288 15.9217 3.38304 15.1716C4.18319 14.4214 5.26844 14 6.40003 14Z" stroke="white"/>
</svg>
