<svg width="103" height="90" viewBox="0 0 103 90" fill="none" xmlns="http://www.w3.org/2000/svg">
<g clip-path="url(#clip0_48_2)">
<path d="M36.05 76.5H10.3C7.56827 76.5 4.94843 75.5518 3.0168 73.864C1.08518 72.1761 0 69.8869 0 67.5V9C0 4.05 4.635 0 10.3 0H92.7C95.4317 0 98.0516 0.948212 99.9832 2.63604C101.915 4.32387 103 6.61305 103 9V67.5C103 69.8869 101.915 72.1761 99.9832 73.864C98.0516 75.5518 95.4317 76.5 92.7 76.5H66.95L87.55 85.5V90H15.45V85.5L36.05 76.5ZM10.3 9V58.5H92.7V9H10.3Z" fill="white"/>
</g>
<defs>
<clipPath id="clip0_48_2">
<rect width="103" height="90" fill="white"/>
</clipPath>
</defs>
</svg>
