<svg width="72" height="64" viewBox="0 0 72 64" fill="none" xmlns="http://www.w3.org/2000/svg">
<path d="M36.3333 19.1812C28.4572 19.1812 22.1008 24.9062 22.1008 32C22.1008 39.0937 28.4572 44.8187 36.3333 44.8187C44.2095 44.8187 50.5659 39.0937 50.5659 32C50.5659 24.9062 44.2095 19.1812 36.3333 19.1812ZM36.3333 40.3312C31.2399 40.3312 27.0832 36.5875 27.0832 32C27.0832 27.4125 31.2399 23.6687 36.3333 23.6687C41.4268 23.6687 45.5835 27.4125 45.5835 32C45.5835 36.5875 41.4268 40.3312 36.3333 40.3312ZM51.1488 15.6687C49.3099 15.6687 47.8249 17.0062 47.8249 18.6625C47.8249 20.3187 49.3099 21.6562 51.1488 21.6562C52.9878 21.6562 54.4728 20.325 54.4728 18.6625C54.4733 18.2692 54.3877 17.8797 54.2209 17.5162C54.054 17.1528 53.8092 16.8225 53.5004 16.5445C53.1917 16.2664 52.825 16.0459 52.4215 15.8956C52.018 15.7453 51.5855 15.6682 51.1488 15.6687ZM64.0768 32C64.0768 28.55 64.1115 25.1312 63.8964 21.6875C63.6813 17.6875 62.6681 14.1375 59.4205 11.2125C56.166 8.2812 52.2314 7.37495 47.7902 7.1812C43.9597 6.98745 40.1639 7.0187 36.3403 7.0187C32.5098 7.0187 28.7139 6.98745 24.8904 7.1812C20.4492 7.37495 16.5077 8.28745 13.26 11.2125C10.0055 14.1437 8.99929 17.6875 8.78417 21.6875C8.56905 25.1375 8.60375 28.5562 8.60375 32C8.60375 35.4437 8.56905 38.8687 8.78417 42.3125C8.99929 46.3125 10.0124 49.8625 13.26 52.7875C16.5146 55.7187 20.4492 56.625 24.8904 56.8187C28.7209 57.0125 32.5167 56.9812 36.3403 56.9812C40.1708 56.9812 43.9666 57.0125 47.7902 56.8187C52.2314 56.625 56.1729 55.7125 59.4205 52.7875C62.6751 49.8562 63.6813 46.3125 63.8964 42.3125C64.1185 38.8687 64.0768 35.45 64.0768 32ZM57.9702 46.7375C57.4636 47.875 56.853 48.725 55.8745 49.6C54.8961 50.4812 53.9593 51.0312 52.6963 51.4875C49.0462 52.7937 40.379 52.5 36.3333 52.5C32.2877 52.5 23.6135 52.7937 19.9634 51.4937C18.7005 51.0375 17.7567 50.4875 16.7852 49.6062C15.8068 48.725 15.1961 47.8812 14.6895 46.7437C13.2462 43.45 13.5723 35.6437 13.5723 32C13.5723 28.3562 13.2462 20.5437 14.6895 17.2562C15.1961 16.1187 15.8068 15.2687 16.7852 14.3937C17.7637 13.5187 18.7005 12.9625 19.9634 12.5062C23.6135 11.2062 32.2877 11.5 36.3333 11.5C40.379 11.5 49.0532 11.2062 52.7032 12.5062C53.9662 12.9625 54.91 13.5125 55.8815 14.3937C56.8599 15.275 57.4706 16.1187 57.9771 17.2562C59.4205 20.5437 59.0944 28.3562 59.0944 32C59.0944 35.6437 59.4205 43.45 57.9702 46.7375Z" fill="white"/>
</svg>
