<svg width="119" height="106" viewBox="0 0 119 106" fill="none" xmlns="http://www.w3.org/2000/svg">
<path d="M59.8905 85.3889C67.2791 85.3889 73.5605 82.8135 78.7346 77.6627C83.9047 72.5079 86.4897 66.25 86.4897 58.8889C86.4897 51.5278 83.9047 45.2699 78.7346 40.1151C73.5605 34.9643 67.2791 32.3889 59.8905 32.3889C52.5018 32.3889 46.2204 34.9643 41.0463 40.1151C35.8762 45.2699 33.2912 51.5278 33.2912 58.8889C33.2912 66.25 35.8762 72.5079 41.0463 77.6627C46.2204 82.8135 52.5018 85.3889 59.8905 85.3889ZM59.8905 79.5L53.3884 65.3667L39.2021 58.8889L53.3884 52.4111L59.8905 38.2778L66.3925 52.4111L80.5788 58.8889L66.3925 65.3667L59.8905 79.5ZM12.6028 106C9.3518 106 6.56971 104.848 4.25656 102.543C1.93947 100.235 0.780918 97.4611 0.780918 94.2222V23.5556C0.780918 20.3167 1.93947 17.545 4.25656 15.2404C6.56971 12.932 9.3518 11.7778 12.6028 11.7778H31.2223L42.1576 0H77.6233L88.5586 11.7778H107.178C110.429 11.7778 113.213 12.932 115.53 15.2404C117.843 17.545 119 20.3167 119 23.5556V94.2222C119 97.4611 117.843 100.235 115.53 102.543C113.213 104.848 110.429 106 107.178 106H12.6028Z" fill="white"/>
</svg>
