<svg width="51" height="54" viewBox="0 0 51 54" fill="none" xmlns="http://www.w3.org/2000/svg">
<g clip-path="url(#clip0_3_22)">
<path d="M43.1662 45.443H35.6596V33.0674C35.6596 30.1163 35.6096 26.3174 31.7555 26.3174C27.8458 26.3174 27.2475 29.5328 27.2475 32.8526V45.4422H19.7412V19.993H26.9473V23.4709H27.0482C27.7694 22.1728 28.8115 21.1049 30.0636 20.381C31.3157 19.657 32.7308 19.3041 34.1584 19.3599C41.7666 19.3599 43.1693 24.6282 43.1693 31.482L43.1662 45.443ZM11.2711 16.5145C8.86521 16.5149 6.91451 14.462 6.91411 11.9293C6.91372 9.39655 8.86362 7.34301 11.2695 7.3426C13.6754 7.34197 15.6261 9.39489 15.6264 11.9276C15.6267 13.1439 15.1679 14.3104 14.3511 15.1706C13.5343 16.0308 12.4264 16.5142 11.2711 16.5145ZM15.0244 45.4432H7.50999V19.993H15.0242V45.443L15.0244 45.4432ZM46.9084 0.0036375H3.73802C1.69768 -0.0205292 0.0244356 1.7001 -0.000499725 3.84801V49.4841C0.023644 51.633 1.69669 53.3553 3.73782 53.3328H46.9084C48.9539 53.3595 50.6335 51.6372 50.6618 49.4841V3.84447C50.6327 1.69239 48.9529 -0.0280292 46.9084 9.5837e-05" fill="#F9F9F9"/>
</g>
<defs>
<clipPath id="clip0_3_22">
<rect width="50.6623" height="53.3333" fill="white"/>
</clipPath>
</defs>
</svg>
